/* XPM */
static char *_d62ff6ec16d440ef4af5225b2161e81SqkzSQo24NAUbyUY[] = {
/* columns rows colors chars-per-pixel */
"64 64 5 1 ",
"  c None",
". c black",
"X c #696A6A",
"o c #F70000",
"O c white",
/* pixels */
"                              ....                              ",
"                              .XX.                              ",
"                              ....                              ",
"                              ....                              ",
"                              .oo.                              ",
"                              .oo.                              ",
"                             ..oo..                             ",
"                            .X.oo.X.                            ",
"                            .X.oo.X.                            ",
"                           .XX.XX.XX.                           ",
"                           .XX.XX.XX.                           ",
"                          .XooX..XooX.                          ",
"                          .XoooXXoooX.                          ",
"                         .XooooooooooX.                         ",
"                         ..............                         ",
"                        .XXXXX.oo.XXXXX.                        ",
"                        .....X.oo.X.....                        ",
"                            .X.oo.X.                            ",
"                           .Xo.oo.oX.                           ",
"                          .Xoo....ooX.                          ",
"                         .Xooo.XX.oooX.                         ",
"                        .Xooo.XXXX.oooX.                        ",
"                       .Xooo.XXooXX.oooX.                       ",
"                      .Xooo.XXooooXX.oooX.                      ",
"                     .Xoooo.XooooooX.ooooX.                     ",
"                     .XXXX.XXooooooXX.XXXX.                     ",
"                     ......Xoo....ooX......                     ",
"                     .XXX.XXo.XXXX.oXX.XXX.                     ",
"                     .Xoo.Xo.XXooXX.oX.ooX.                     ",
"                    .Xooo.X.XXoOOoXX.X.oooX.                    ",
"                    .Xoo.X.XXoOOOooXX.X.ooX.                    ",
"                    .Xoo.X.XoooOOoooX.X.ooX.                    ",
"                    .Xoo.X.XoooOOoooX.X.ooX.                    ",
"                     .Xo.X.XXoOOOOoXX.X.oX.                     ",
"                     .Xoo.X.XXooooXX.X.ooX.                     ",
"                      .Xo.Xo.XXooXX.oX.oX.                      ",
"                      .Xo.XXo.XXXX.oXX.oX.                      ",
"                       .Xo.Xoo....ooX.oX.                       ",
"                  .... .Xo.XXooooooXX.oX. ....                  ",
"                 .XXXX..Xoo.XooooooX.ooX..XXXX.                 ",
"                 .XoooXX....XXooooXX....XXoooX.                 ",
"                 .XoooooXXXX.XXooXX.XXXXoooooX.                 ",
"                .Xooooo.o.ooX.XXXX.Xooo...ooooX.                ",
"                .Xoooooo.ooooX.XX.Xoooo..oooooX.                ",
"               .Xoooooo.o.ooooX..Xooooo.o.oooooX.               ",
"               .Xooo...oooooooX..Xoooooooo...ooX.               ",
"              .Xooo.ooo.ooooooX..Xooooooo.ooo.ooX.              ",
"              .Xooo.ooo.oooooXX..XXoooooo.ooo.ooX.              ",
"              .Xooo.ooo.ooooX......Xooooo.ooo.ooX.              ",
"              .Xoooo...ooooX.oo..oo.Xooooo...oooX.              ",
"               .XoooooooooX.ooo..ooo.XoooooooooX.               ",
"               .XXXXXXXXXX.ooXX..XXoo.XXXXXXXXXX.               ",
"               ...........oXX......XXo...........               ",
"               .XooooXXXXXX..      ..XXXXXXooooX.               ",
"              .XXXXXX......          ......XXXXXX.              ",
"              .......                      .......              ",
"                                                                ",
"                                                                ",
"                                                                ",
"                                                                ",
"                                                                ",
"                                                                ",
"                                                                ",
"                                                                "
};
