/* XPM */
static char *c895d6fcf4b640e4fc31629c66217e8eKw0ehMouhJWOgECQ[] = {
/* columns rows colors chars-per-pixel */
"64 60 16 1 ",
"  c None",
". c #6F4A19",
"X c #AE701F",
"o c #DE8A1E",
"O c #DCBC08",
"+ c #F09725",
"@ c #FFD800",
"# c #C59659",
"$ c #FFB04B",
"% c #EFB05E",
"& c #FCE046",
"* c #6AB4A8",
"= c #D0B794",
"- c #FAD292",
"; c #9CDED4",
": c white",
/* pixels */
"                                                                ",
"                                                                ",
"                       $$             $$                        ",
"                      $++$           $++$                       ",
"                      ++++           ++++                       ",
"                     ++++++         ++++++                      ",
"                     +oooo+         +oooo+                      ",
"       $$           oooooooo       oooooooo           $$        ",
"      $++$$         oXXXXXXo       oXXXXXXo         $$++$       ",
"      +++++++      XXXXXXXXXX     XXXXXXXXXX      +++++++       ",
"       +ooooo++    XXXXXXXXXX     XXXXXXXXXX    ++ooooo+        ",
"       ooooooooo   +++++++++++++++++++++++++   ooooooooo        ",
"        XXXXXXXo+++$$$@@$@@@$$@$@$$@@@$@@$$$+++oXXXXXXX         ",
"        XXXXX+++++$$$$$$$$$$$$$$$$$$$$$$$$$$$+++++XXXXX         ",
"         ..++@@@@@++$@$$@@$$@$$+$$@$$@@@$$@++@@@@@++..          ",
"         .+@@++@@@@@+$$$$$$$$$+;+$$$$$$$$$+@@++@@@@@+.          ",
"         +@@+XX++@@@@+$$@$@@$+;*;+$@@$@$$+@@+XX++@@@@+          ",
"         +@@X@@XX+@@@+$$$$$$+;***;+$$$$$$+@@X@@XX+@@@+          ",
"        +@@+X@+@@X@@@@+@@$@$+**:**+$@$@@+@@+X@+@@X@@@@+         ",
"        +@@X@@X++X@+@@+$$$$+;*;:**;+$$$$+@@X@@X++X@+@@+         ",
"        X@@X@@@XX@@X@@X++++X.*****.o++++X@@X@@@XX@@X@@X         ",
"       oX+@@++@@@++@@+X+OO+oX*****.o+OO+X+@@++@@@++@@+Xo        ",
"     $$X.+@@XX+++XX@@+.+++++X.***.o+++++.+@@XX+++XX@@+.X$$      ",
"   $$ooX..+@@@XXX@@@+.OOO++O+X.*..#O++OOO.+@@@XXX@@@+..Xoo$$    ",
"  $ooooX..X++@@@@@++X.++++++o#..Xo+++++++.X++@@@@@++X..Xoooo$   ",
"  oooXXXX..XX+++++XX.+O+OOO+++oo#+++OOO+O+.XX+++++XX..XXXXooo   ",
"  XXXXXXXX...XXXXX..+++++++++OO+OO+++++++++..XXXXX...XXXXXXXX   ",
"    XXXXX..XX.....+++XXXXX+++++++++++XXXXX+++.....XX..XXXXX     ",
"      .....XXoOoOO+XX@@@@@XXO++O++OXX@@@@@XX+OOoOoXX.....       ",
"        ...XXooo++X@@+++++@@X+++++X@@+++++@@X++oooXX...         ",
"          .XXOoO+.@@+.....+@@.+O+.@@+.....+@@.oOoOXX.           ",
"          .XXoooo.++.......++.+++.++.......++.+oooXX.           ",
"        $o.$$$$$$$$$$%$%%$$$$$$$$$$$$%$%%$$$$$$$$$$$.$          ",
"      $$oXX@@@$$@$$@@@$$@$$@@@$@$@@@$$@$$@@@$$@$$@@@XX$$        ",
"    $$ooX$$$$$$XXXXXXXXXXXXXXXXXXXXXXXXXXXXXXXXX$$$$$$Xo$$      ",
"  $$oooX@$@@XXX@@@+X+@@@@@+X+@@@@@+X+@@@@@+X+@@@XXX@@$@Xoo$$    ",
" $ooooo.$$$XX+@@@+X.X+@@@+X.X+@@@+X.X+@@@+X.X+@@@+XX$$$.oooo$   ",
" ooooXX.+O+X.X@@@X.X.X@@@X.X.X@@@X.X.X@@@X.X.X@@@X.X+O+.XXooo   ",
"  XXXXXX.++$XX+@+XX+XX+@+XX+XX+@+XX+XX+@+XX+XX+@+XX$++.XXXXXX   ",
"    XXXX.OO+$XX+XX+@+XX+XX+@+XX+XX+@+XX+XX+@+XX+XX$+OO.XXXX     ",
"      ...+++$X.X.X@@@X.X.X@@@X.X.X@@@X.X.X@@@X.X.X$+++...       ",
"        ..OO+$X.X+@@@+X.X+@@@+X.X+@@@+X.X+@@@+X.X$+OO..         ",
"         .ooo$+X+@@@@@+X+@@@@@+X+@@@@@+X+@@@@@+X+$ooo.          ",
"          .oOo$$$$$$$$$$$$$$$$$$$$$$$$$$$$$$$$$$$oOo.           ",
"           .ooooooooooooooooooooooooooooooooooooooo.            ",
"          X...oOOOooooOOOooOooOOOooOooOOOooooOOOo...X           ",
"         XX..X...................................X..XX          ",
"         oXX..XXXXXoooOooOooOOOoOOOooOooOoooXXXXX..XXo          ",
"        oooXX...XXXXXXXXXXXXXXXXXXXXXXXXXXXXXXX...XXooo         ",
"        oooooXX....XXXXXXXXXXXXXXXXXXXXXXXXX....XXooooo         ",
"       XooooooXX   .........................   XXooooooX        ",
"       XXXXXXXX    XX......XX     XX......XX    XXXXXXXX        ",
"      .XXXX..      XXXXXXXXXX     XXXXXXXXXX      ..XXXX.       ",
"      ..X..         oXXXXXXo       oXXXXXXo         ..X..       ",
"       ..           oooooooo       oooooooo           ..        ",
"                     XooooX         XooooX                      ",
"                     XXXXXX         XXXXXX                      ",
"                      .XX.           .XX.                       ",
"                      ....           ....                       ",
"                       ..             ..                        "
};
