/* XPM */
static char *_aaf50acdc774b0dd1982679e32da202TOba8gnMMqEBky4W[] = {
/* columns rows colors chars-per-pixel */
"64 64 249 2 ",
"   c None",
".  c #000001",
"X  c #0E0A05",
"o  c #0B0907",
"O  c #120C06",
"+  c #150E09",
"@  c #1C120A",
"#  c #181306",
"$  c #1A1914",
"%  c #251F07",
"&  c #241E09",
"*  c #2A1C0C",
"=  c #25150C",
"-  c #341C0F",
";  c #271D13",
":  c #361A12",
">  c #29210B",
",  c #30210F",
"<  c #392908",
"1  c #2C2314",
"2  c #24231A",
"3  c #2D251A",
"4  c #2C2819",
"5  c #342214",
"6  c #3A2613",
"7  c #3E2915",
"8  c #33251A",
"9  c #342B1C",
"0  c #3C2C1B",
"q  c #362817",
"w  c #3C351C",
"e  c #3D3214",
"r  c #2D2A21",
"t  c #3A2E23",
"y  c #3B392B",
"u  c #393425",
"i  c #451D13",
"p  c #42230B",
"a  c #48280C",
"s  c #442414",
"d  c #4C2312",
"f  c #422B15",
"g  c #4B2D13",
"h  c #412D1C",
"j  c #492B1D",
"k  c #4B261B",
"l  c #542D15",
"z  c #5B2C15",
"x  c #572718",
"c  c #473517",
"v  c #55351F",
"b  c #573617",
"n  c #57320D",
"m  c #652B14",
"M  c #6A2C14",
"N  c #642B18",
"B  c #643416",
"V  c #6D3315",
"C  c #6C3D16",
"Z  c #65361A",
"A  c #733615",
"S  c #743A15",
"D  c #793D15",
"F  c #783917",
"G  c #683C0D",
"H  c #473827",
"J  c #543A28",
"K  c #4E372C",
"L  c #693922",
"P  c #7D3D21",
"I  c #713A23",
"U  c #5A471D",
"Y  c #4D4013",
"T  c #66480D",
"R  c #684614",
"E  c #7C4215",
"W  c #7B411A",
"Q  c #774817",
"!  c #7A5212",
"~  c #7B531C",
"^  c #704B0A",
"/  c #52412F",
"(  c #5A4A28",
")  c #574732",
"_  c #4E432B",
"`  c #634A29",
"'  c #784529",
"]  c #68562B",
"[  c #745A26",
"{  c #6D5B36",
"}  c #615434",
"|  c #785C34",
" . c #6F4636",
".. c #7B6229",
"X. c #786D36",
"o. c #7F631F",
"O. c #745440",
"+. c #823D16",
"@. c #813F21",
"#. c #834316",
"$. c #8A4A16",
"%. c #83451E",
"&. c #8B441A",
"*. c #854D1C",
"=. c #8C4D1B",
"-. c #874816",
";. c #93481B",
":. c #8E521D",
">. c #895718",
",. c #92541D",
"<. c #955818",
"1. c #8F520E",
"2. c #88661D",
"3. c #9A6918",
"4. c #9D721D",
"5. c #9D7718",
"6. c #9D6E0F",
"7. c #A37A1B",
"8. c #AC7F1D",
"9. c #A37518",
"0. c #A46C13",
"q. c #824221",
"w. c #834029",
"e. c #864D29",
"r. c #8A4526",
"t. c #974B26",
"y. c #8C5421",
"u. c #885626",
"i. c #915522",
"p. c #9D5225",
"a. c #935A25",
"s. c #9B5D24",
"d. c #945D2C",
"f. c #985F29",
"g. c #95542C",
"h. c #944A30",
"j. c #9B4E30",
"k. c #9F5D3D",
"l. c #965C35",
"z. c #8A5038",
"x. c #A45926",
"c. c #A65B39",
"v. c #BB5D36",
"b. c #86692A",
"n. c #9C622B",
"m. c #966629",
"M. c #8D752E",
"N. c #8D7323",
"B. c #9A7627",
"V. c #826D33",
"C. c #856836",
"Z. c #966030",
"A. c #9A6331",
"S. c #84713C",
"D. c #8A7334",
"F. c #937A33",
"G. c #A6652A",
"H. c #A17621",
"J. c #A37C2A",
"K. c #A57B25",
"L. c #A86C36",
"P. c #B46A31",
"I. c #B96A38",
"U. c #AE733C",
"Y. c #A27E30",
"T. c #B8743A",
"R. c #B5692E",
"E. c #A4591F",
"W. c #C97235",
"Q. c #E07C3E",
"!. c #9C5241",
"~. c #915A41",
"^. c #845442",
"/. c #A75441",
"(. c #B15641",
"). c #887645",
"_. c #8D7B4B",
"`. c #887643",
"'. c #917F49",
"]. c #9D6745",
"[. c #BD7C45",
"{. c #B37945",
"}. c #B16C41",
"|. c #C47D42",
" X c #CA7B44",
".X c #CA7046",
"XX c #7F803F",
"oX c #B08317",
"OX c #9C8437",
"+X c #A88327",
"@X c #AA8B3B",
"#X c #A78936",
"$X c #AE9137",
"%X c #B29438",
"&X c #B2882A",
"*X c #D18C28",
"=X c #CAA33A",
"-X c #9B8545",
";X c #94814A",
":X c #9B8646",
">X c #84894A",
",X c #A28A42",
"<X c #A78D44",
"1X c #AD9445",
"2X c #B2994A",
"3X c #AD9850",
"4X c #B29C53",
"5X c #B9A54B",
"6X c #B7A559",
"7X c #BFB257",
"8X c #BBAC65",
"9X c #BEB36B",
"0X c #C28046",
"qX c #C38348",
"wX c #CC8648",
"eX c #D48A4D",
"rX c #D78847",
"tX c #C98D55",
"yX c #D18E55",
"uX c #CD925C",
"iX c #DF985B",
"pX c #D39359",
"aX c #DC904C",
"sX c #E09859",
"dX c #E89C52",
"fX c #EA924E",
"gX c #C7AE56",
"hX c #C8B356",
"jX c #CEB44A",
"kX c #CD9461",
"lX c #DC9E69",
"zX c #D99B65",
"xX c #E19D63",
"cX c #C8B868",
"vX c #C3BB77",
"bX c #D2AA6C",
"nX c #E3A773",
"mX c #E6AA74",
"MX c #EBAB6F",
"NX c #EFA55C",
"BX c #C9C67A",
"VX c #CECB6F",
"CX c #CAC988",
"ZX c #CED191",
"AX c #D2D997",
"SX c #D0D386",
"DX c #D7E797",
"FX c #D5DEA1",
"GX c #DAE8A5",
/* pixels */
"    x v j j k n a c a n n k j j j j j j j j H j j j j j j j j j j j j j j j j j j j j j j j j j j k k g n d a n a g j j j v     ",
"K  .~.z./.^.K W.*X*X*X*XR ) ].!.k.k.k.k.k.k.!.!.k.k.k.k.k.k.k.k.k.k.k.!.k.k.k.k.k.k.k.k.k.k.]./.k.{ L *X*X*X*XW._  .}.!.l.^. .J ",
"k wXqXqX|.c.H =XjXhXhXjX .J W.1X|.0X0X0X1X X|.|.1X0X0X0X[.0XqX|.1X X X|.|. X1X X|.qX0XqX1X X X|.[.z.L jXjXgXjX=XJ ' qX|.|. XI.k ",
"k dXeXeXyXW.H gXVXhXcXjX| J Q.eXeXeXeXeXrXeXeXeXrXeXeXeXeXeXeXeXrXeXeXyXyXeXeXeXeXeXeXeX XaXyXyXrXc.L VXcXcXVXjX_ ' aXeXyXyXQ.j ",
"k MXkXkXkX.XK BXSXSXSXVX`.K tXkXuXkXkXkXkXkXkXuXkXkXkXkXkXkXuXkXkXkXkXuXkXkXkXkXuXkXkXkXkXkXkXkXuXZ. .SXBXVXSXVXK P zXkXkXkXeXK ",
"N MXnXmXnXiXH AXFXAXFXGX>XN MXmXnXnXnXnXnXnXnXnXnXnXnXnXnXnXnXnXnXnXlXxXiXiXiXiXzXsXsXsXiXiXsXiXsX}.{ GXFXGXAXDX) z.mXnXnXnXNXN ",
"N MXmXmXnXQ.K AXFXFXFXFX>Xv aXsXsXsXsXsXsXsXiXiXsXsXsXsXsXiXiXsXsXxXlXpX|. X|.|.wXW.|.|.|.|. XqXW.z.] GXFXFXFXDX} z.mXmXnXnXNXN ",
"x mXmXmXnX.XK ZXAXAXAXAX>Xt v.P.L.R.R.R.L.P.P.I.R.P.P.P.P.R.R.L.[.tXuXzXlXlXlXzXlXlXxXlXlXlXlXlXlXI.} GXAXAXAXDX) ' nXlXnXlXNXN ",
"i NXrXsXyXQ.H CXAXAXAXZXOXH wXyXyXyXyXyXyXyXuXyXuXuXkXkXyXuXyXyXyXpXzXlXlXlXlXlXlXlXlXlXlXlXlXlXzXI.( DXZXZXZXDX/ ' nXlXlXlXdXx ",
"8  .J L I ) H CXZXZXZXZXX.u }.[.[.[.[.[.[.[.[.[.|.[..X[.[.|..X1X[.[.[.[.[.[.[.[.[.[..X1X[.[.[.[.{.z.( DXZXZXZXVX/ J |.{.[.{.W.8 ",
"8 /.].].].~.H BXZXCXCXSXX.H .X|..X[.{.T.}.(././.!.!./.!.!.!.!.!.!.!.!.!.!.!.!.!.!.!.!.!.!.!././.v.^.( AXCXCXCXBXK )  X.X[..X.Xt ",
": zXkXuXuXW.y 9XCXCXCXBXX.j wXtXtXtXtXtXT.P.t.@.@.@.@.@.@.@.w.w.@.w.w.w.w.w.w.w.z.@.@.@.w.@.w.p.I.@.( SXCXCXCXVXy I pXuXtXtX Xi ",
"i xXtXuXuXW.t cXCXCXBXBXX.0 wXuXtXtXuXtXtXtXtXqXtX[.qXqXqXqXqXqXqXqXqXqXqXqXqXqX X[.qXqXqXqXqXtXtXe._ SXCXCXvXVXH I pXuXtXtXrXi ",
"; g.e.e.e.' t 9XvXvXvXBX{ 9 e.e.e.e.e.e.e.e.e.e.z.e.e.e.e.e.u.e.e.e.e.e.e.e.e.e.z.z.e.e.e.e.e.u.w. .( BXvXvXvXVXH H e.e.e.w.h.; ",
"8 ) K / J ) t 9XvX9XvXcX] t / K / / / / / K K / / / ) K K / / / ) K ) ) ) ) ) K / / / / ) / / / ) J J BX9XBXBX7Xy j / K / K ) 8 ",
"; W.T.I.T.j.u 6XvX9X9XcX} 0 I.T.I.I.P.I.P.P.P.I.P.I.P.P.I.P.P.I.P.j.j.h.h.h.h.h.h.h.h.h.h.h.h.h.h.` J cX9X9X9XgXu J W.T.I.I.v.3 ",
": qX{.{.{.x.t 6X9X9X9XcX] 5 P.<X}.U.L.x.x.p.p.x.p.p.p.p.p.p.p.p.p.p.t.r.@.r.r.r.@.@.r.r.t.s.G.L.L.I H BX8XcX9X7Xt z {.{.{.{.R.- ",
"= qX{.{.{.p.9 4XcX8X8X6X` 8 P.{.{.L.s.=.q.@.P P @.+.@.P @.@.+.%.@.%.q.q.r.@.%.q.r.P P P r.p.G.U.P.P h cX8X8X8X5Xu x P.{.{.{.R.- ",
"= T.G.s.p.' 9 2X8X6X6X5X` q t.p.p.p.p.p.p.p.t.p.p.p.p.p.x.x.L.L.U.U.U.U.U.U.U.U.T.L.G.s.3.s.s.s.p.v f cX6X8X6X5Xt k x.n.L.U.x.- ",
"= t.I L b v q 1X8X6X6X5X` 1 v v v v v v z v v v v v v v L L ' %.r.q.q.%.q.%.q.%.r.q.P Z L L L Z Z v 0 7X6X6X6X2Xu f L W W q.q.= ",
"= h 0 h 0 h 3 $X6X4X6X2X( * h c h f h h h h h h 0 h f 0 0 7 0 7 e 0 0 0 7 0 0 7 0 7 0 0 7 0 h h h h 7 gX4X4X4X%X0 : h 0 0 0 h @ ",
"= g.e.e.e.L r @X4X3X4X%XJ 8 ' e.e.e.e.e.e.e.r.e.r.e.e.e.e.e.e.e.e.e.e.e.e.e.e.e.e.e.e.e.e.e.e.e.r.J 5 jX3X3X4X$X9 h e.e.e.e.' ; ",
"+ P.n.n.G.W 8 #X3X2X2X%Xv * p.n.n.n.n.n.n.n.n.n.n.n.n.n.n.n.n.n.n.s.n.n.n.n.n.n.n.n.n.n.n.n.n.n.n.B q 2X3X2X2X#X9 d G.n.n.n.;.@ ",
"+ G.d.d.d.S ; OX1X1X1X$Xv > &.,.=.:.=.,.:.:.:.:.:.:.,.:.:.:.,.:.,.:.:.:.:.,.:.,.,.,.i.a.f.Z.d.d.a.m 8 2X1X1X1XY.q d s.f.d.d.;.@ ",
"O G.a.a.d.C ; J.1X<X1X&XJ & F D S S S S S S S S S S S S A V S A A A A V A A A S D E *.*.a.a.a.d.i.z q %X@X<X<XJ.4 d s.a.d.d.&.+ ",
"O G.d.Z.d.S ; J.@X#X@X+Xc = -.*.*.*.:.*.*.*.*.*.*.*.#.D F F A A A A F A F A A A S D D D D -.$.*.-.x 3 %X@X@X@XH.1 s =.*.:.a.&.O ",
"O E.,.a.f.C ; B.@X@X#XK.c = ,.d.a.d.a.a.f.a.d.a.f.a.>.*.E E D E E D E E E D E E D D V M M A E E D d 3 &X#X#X@XH.1 5 E E -.:.+.@ ",
"O B l z N z ; N.Y.Y.Y.K.c * M S A S A S A S A S A A A V A V A A V A V A A V V A A V V V V A V V V g : &XY.J.Y.3., < A A V A A + ",
"o * = * = - @ 3.K.J.J.H.g = 5 , 1 , , , , , , , > , 5 , , , , , , , , , 5 , , , - , , , , , , , 1 5 ; +XJ.J.J.<., = , , , , 6 O ",
"O a p l C z > 3.J.K.J.3.e = S D D E D E W E D D E D D D D S D F D D D F S D D D D +.D D D D D F S l * 8.B.J.J.<.> 6 E W D W A O ",
"X A =.s.m.D , >.H.H.H.0.< * p.f.d.n.f.n.f.n.f.m.f.f.a.<.<.=.$.&.#.&.+.&.&.+.-.#.+.&.&.+.#.&.&.#.#.z 1 9.B.9.7.>.> d G.A.A.n.;.O ",
"O F +.F A l * >.H.4.4.<.< * B A A V V V V V V V A A A A F M M M M M M M M M M M M M M M M M M M M f ; 9.3.4.4.1.> d s.s.n.&.B O ",
"O 6 f f 7 g > 1.4.4.9.<.< * g f f h f f f f 7 f f f 7 g 7 g k g z l l l l l l l l l l l l l l l l g * 0.3.4.4.$.% , z z x g 6 # ",
"% G p p p < g 3.4.4.4.6.C p p p p p p p p p p p p p p p p p p < p p p p p p p p < p p p p p p p p < G 9.4.4.4.6.n p p p p < n * ",
"# oXoXK.oXK.oX5.H.H.7.H.7.8.8.8.oX8.oX8.oXK.8.8.oXK.8.8.oXK.oXoX8.8.8.8.8.oXoXK.8.8.8.8.8.8.8.8.8.8.K.7.7.H.H.4.8.8.8.8.8.oX0.* ",
"= 8.7.7.7.7.7.7.7.9.7.7.7.7.9.9.7.7.7.7.7.7.9.9.7.7.7.7.7.7.7.7.9.7.7.7.7.7.7.7.7.7.7.9.7.7.7.7.7.7.7.7.7.7.7.7.9.7.7.7.8.0.<.% ",
"% R ! ! ! ! ! ^ ! ! ! ! ! ! ! ! ! ! ! ! ! >.! ! ! ! ! ! ! ! ! ! ! ! ! ! ! ! ! ! ! ! ! >.>.! ! ! ! ! ! ! ! ! ! ! ! ! ! ! ! ^ G @ ",
"@ > % > > > > > & & % % % % % % & & & & % % % % > % % % # > > > % % > > & & % & % % % % % % % % & & % % % % % & % % % % % % > $ ",
"4 H w u w u H c H c u * d d d d d d d d p = 5 c g g g c g g f f e e f f f f g c l c g e @ p d d d d d p * H / ( ( ( ( } ( _ w 1 ",
"9 M.` [ ........N.~ w 8 #.<.=.=.=.=.$.:.+.= U 4.2.3.2.Q c c c e c c c c c c b *.2.2.2.Q & V ,.*.=.=.$.+.3 } ..X.X.X.D.D.F.N.>.4 ",
"r %XV._.;X:X:X-X@XB.w 5 ,.n.d.f.s.d.f.n.&.* R +XJ.4.Q 0 v U U U U U U U v H w < R 4.J.>.= W Z.d.d.d.p.+.q { M.).;X;X:X-X:X@X+Xw ",
"r $XV._.;X:X:X-X,Xm.w 5 ,.d.a.,.d.a.a.a.#.= R Y.B.! e X.6XcXcXcXcX8XgXcXcX7X1X} 1 R B.>.= R :.:.:.y.:.F 4 { M.).;X;X:X:X:X@X+X9 ",
"r %XV._.;X;X;X-X,XN.w 8 F D D D S D D D B = U +XB.T c 5X3X3X3X3X3X4X3X3X3X3X4X@Xw a 5.2.@ Z u.*.e.*.y.A 4 { M.).;X;X;X:X:X:X+X7 ",
"r #XV._.;X:X-X-XOXB.w 1 M A V V V V V A z @ T +X5.U 9 OXF.F.F.F.F.F.F.D.F.F.OXC.w p 5.<.# W n.,.$.-.+.A 9 { M.`.;X;X;X:X,X@X8.4 ",
"2 | D.).;X;X-X:X,XB.e 8 ,.Z.m.Z.d.d.d.Z.;.@ T +X5.T 4 S.S.S.S.S.S.S.S.S.S.S.`.] w f 5.2.X Q Z.*.m d s 6 8 { M.`.'.;X-X:X:XOXQ 4 ",
"o u } ] ] [ [ [ ~ [ c q ,.a.:.,.i.a.i.a.&.@ T +X7.G 5 ;X_._.;XV.] ] ..)._._.;XC.9 p 6.6.O R f.:.*.=.$.F 3 } ] | V.D.b.b.B.2._ o ",
"O c 4 2 2 2 2 2 2 4 2 5 #.D A V A A A A b # T &X7.T 3 :X;X;XV._ u ; r ( ;X;X;XD.9 < oX1.O z D D E *.y.F 3 y y u 9 u u u w u 4 X ",
"+ x.&.=.*.:.:.=.%.%.#.*.-.E E S S S S W C # T oX8.T 4 :X;X;X[ u . . . 2 D.;X;XD.4 a oX6.O n D D E *.:.$.z s s s s s s s s g V + ",
"O G.m.d.d.d.A.d.Z.Z.l.n.d.Z.Z.Z.Z.Z.d.Z.t.+ T oXoX^ % ,X;X:Xb.4 . . . $ F.:X;XF.4 a 6.! # B *.-.*.-.-.-.-.$.$.$.$.$.$.=.,.a.F O ",
"O t.#.:.y.=.t.y.r.y.,.i.i.i.a.d.d.d.Z.d.=.* > 0.oX^ * <X:X:XOX( $ . + ( :X:X:XM.> a 1.Y X E *.*.*.*.*.*.y.*.*.*.*.*.y.u.a.i.B O ",
"O S x g a f 6 6 6 7 6 d d l m -.d.d.d.Z.d.A O > < < * 1X:X:X:X..4 . 4 #X:X:X;XOXe % < # a n.Z.Z.Z.Z.Z.Z.Z.d.d.Z.Z.d.Z.Z.d.a.N O ",
"2 V m : - - i l n z b G S S S :.d.d.d.d.d.,.F : - @ 1 1X:X@X:XN.4 . 4 #X:X,XOX+X4 # - z s.d.a.d.d.u.d.d.d.d.d.Z.d.Z.d.d.Z.y.l ; ",
"$ 7 l m +.;.,.s.s.s.s.d.Z.Z.d.y.:.:.*.E E #.#.=.$.l > %X<X,XOXB.2 . ; @X,X,X,XOX4 > &.$.E E #.E E E +.#.#.#.&.&.&.&.&.+.#.A 7 2 ",
"r 9 , 7 a d i k d s d S d.a.u.y.E Q S V m m m M m , @ B.@X@X#X+Xw $ Y @X@X$X#X~ > % m V M m M M B M M z s 5 - 6 5 5 5 : - ; t r ",
"r C.y y y y u u u y y 5 :.:.y.*.:.:.*.:.=.1.=.>.$.V @ c N.o.o.o.~ b.b.2.o.2.b.b O a +.+.#.#.#.#.#.#.#.A 4 t y y y y u y y y | H ",
"r %X| V.b.M.D.B.F.Z._ q #.e.*.*.*.*.*.*.*.*.*.*.*.#.z + o o X X X X X . X X . # , z M M M V M V M V M m 4 X.F.| b.D.D.M.F.+X4.q ",
"9 %XV.).'.'.F.-XOX4.e q $.:.=.:.=.:.:.=.=.=.:.=.:.:.&.S G V B B G b B B B B B B E y.y.y.y.y.y.y.y.:.,.F 3 { M.`._.'.'.-X#X,XK.0 ",
"r #XV._.;X;X:X:X,XN.w 1 M M M M M m M M M M M M M M M V S ! *.y.a.f.y.y.:.*.-.-.:.*.=.=.=.*.=.*.*.=.$.F 4 { D.).'.'.-X-X-X,X+X0 ",
"r $XV._.;X;X-X-X,Xm.c 5 D *.*.-.*.*.*.*.*.*.-.Q *.-.*.*.*.y.i.d.d.d.a.u.E S M M M M m M M M M B M M M x 3 { M.).'.;X-X-X:XOX+X7 ",
"4 %XV._.;X;X-X:X,XN.w 4 +.+.#.D +.+.#.i.Z.Z.Z.Z.Z.Z.Z.Z.Z.Z.d.Z.d.d.a.a.a.:.,.>.y.,.y.i.,.y.:.,.:.,.,.F 8 { M.).'.;X;X-X:X@X+X0 ",
"r #XV._.'.-X-X:X@Xm.w 3 6 6 6 6 6 6 d F :.i.,.y.:.:.i.:.u.:.:.*.$.#.#.#.#.#.#.#.#.#.#.#.%.#.#.#.#.#.#.A 3 { M.).;X;X-X;X,XOXB.9 ",
"r | D._.;X'.-X-X:XN.w 3 A M N z z N N N M M M M B M V S E W E S S R C C R C C C R C C C C C C C R C S x 4 { M.).'.;X;X:X:X+XU 4 ",
"  y ] b.M.D.M.B.B.3.Y 3 x x f f f 0 f 7 7 7 s 0 0 f f x N z z Z Z Z B B B B B B B B B B B B B B B B B f 8 | C.[ D.D.N.B.N.` H   ",
"    3 9 8 9 9 9 9 9 r $ O O X X X + X O O O + X X X O O X X X X X X O X X X O X X O X X X O X X X X O O $ t 0 3 3 8 9 9 0 4     "
};
