/* XPM */
static char *dca1aa2d56754ac6e66ea7986f896e81K7XA8ZhCDcNRWtG1[] = {
/* columns rows colors chars-per-pixel */
"32 32 6 1 ",
"  c None",
". c #140C1C",
"X c #854C30",
"o c #D27D2C",
"O c #DAD45E",
"+ c #DEEED6",
/* pixels */
"                                ",
"           .........            ",
"         ..+++++++++..          ",
"        .++OOOOOOOOO++.         ",
"       .+OOXoOOOOOoXOO+.        ",
"      .+OXoOOOOOOOOOoXO+.       ",
"     .+OXoOOOOOOOOOOOoXO+.      ",
"     .+OXoOOOOOOOOOOOoXO+.      ",
"    .+OXoOoOOOOOOOOOoOoXO+.     ",
"    .+.+oOoOOOOOOOOOoOo+.+.     ",
"    .o.ooOoOOOOOOOOOoOoo.o.     ",
"    .Oo.+oOoOOOOOOOoOo+.oO.     ",
"    .Oo.ooOoOoOOOoOoOoo.oO.     ",
"    .+.+XX...oOOOo...XX+.+.     ",
"     ..oX.....XOX.....Xo..      ",
"     .+OX....XoOoX....XO+.      ",
"     .+oOX..+oOoOo+..XOo+.      ",
"     .+oOoO+oOOoOOo+OoOo+.      ",
"      .+OOOOOO.o.OOOOOO+.       ",
"      .+OOOOOo.O.oOOOOO+.       ",
"       ..OOOOO.O.OOOOO..        ",
"        .+.OO.XOX.OO.+.         ",
"        ..OOOOOOOOOOO..         ",
"         .OoOoOoOoOoO.          ",
"         ..O+.+.+.+O..          ",
"         .O.+.+.+.+.O.          ",
"         .+O.+.+.+.O+.          ",
"         .+oOOOOOOOo+.          ",
"          ..+oOOOo+..           ",
"            ..XOX..             ",
"              ...               ",
"                                "
};
