/* XPM */
static char *cf48bdd177ec4c18e6299747aff2283crL0E9539jpvJnUPu[] = {
/* columns rows colors chars-per-pixel */
"65 89 120 2 ",
"   c None",
".  c #592506",
"X  c #56260C",
"o  c #5B2609",
"O  c #53280E",
"+  c #4C2B16",
"@  c #4C2A1A",
"#  c #552711",
"$  c #542810",
"%  c #632C0C",
"&  c #6A2E0D",
"*  c #703713",
"=  c #763B17",
"-  c #7F3E17",
";  c #7E3D3D",
":  c #7B533A",
">  c gray31",
",  c #5B4E4C",
"<  c #52524F",
"1  c #564F50",
"2  c #525152",
"3  c #5B5B5B",
"4  c #6E4644",
"5  c #674847",
"6  c #674748",
"7  c #634A4A",
"8  c gray40",
"9  c gray43",
"0  c #767676",
"q  c gray50",
"w  c #A90808",
"e  c #B50100",
"r  c #BA0101",
"t  c #952D2C",
"y  c #873838",
"u  c #943433",
"i  c #AE2526",
"p  c #A42C2C",
"a  c #B22324",
"s  c #BB2020",
"d  c #B62F2F",
"f  c #C60202",
"g  c #CF090B",
"h  c #D70101",
"j  c #DB0101",
"k  c #C21C1D",
"l  c #D51514",
"z  c #D91211",
"x  c #E30102",
"c  c #ED0303",
"v  c #EE0807",
"b  c #E50C0B",
"n  c #EC0909",
"m  c #F40303",
"M  c #FF0100",
"N  c #F4090A",
"B  c #FC0D0B",
"V  c #FD1010",
"C  c #FE1D1E",
"Z  c #FE201E",
"A  c #DC3336",
"S  c #DD3C3C",
"D  c #E92728",
"F  c #FF2320",
"G  c #EF3C3B",
"H  c #FF3233",
"J  c #FE3837",
"K  c #FE3738",
"L  c #FE3839",
"P  c #844019",
"I  c #8D451C",
"U  c #9F4E1F",
"Y  c #A0501F",
"T  c #B4571E",
"R  c #885337",
"E  c #AC5624",
"W  c #AF5825",
"Q  c #A85628",
"!  c #AC592A",
"~  c #B45720",
"^  c #B15923",
"/  c #EA3F40",
"(  c #DB4747",
")  c #E44142",
"_  c #DA6565",
"`  c #DA7676",
"'  c #E66967",
"]  c #838383",
"[  c #979797",
"{  c #9A9A9A",
"}  c gray63",
"|  c #B8ACAC",
" . c #B4B4B4",
".. c #BBBBBB",
"X. c #C69D9F",
"o. c #E18B8B",
"O. c #C6B7B4",
"+. c #C1C1C1",
"@. c #C6C6C6",
"#. c #CDCDCD",
"$. c #D2D2D2",
"%. c gray87",
"&. c #F9CCCD",
"*. c gray93",
"=. c #F3F3F3",
"-. c #FFF2F3",
";. c #FFF4F5",
":. c #FFF5F6",
">. c #FFF7FA",
",. c #FEFBFB",
"<. c #FDFDFB",
"1. c #FFFCFB",
"2. c #FFFCFC",
"3. c #FFFCFE",
"4. c #FFFEFE",
"5. c #FEFFFE",
"6. c #FFFFFE",
"7. c #FFFEFF",
"8. c white",
"9. c #FFFDFD",
/* pixels */
"                                                            $ $ $ $ $ O # #                                                       ",
"                                                      # # # $ $ $ $ $ $ $ $ $ # $                                                 ",
"                                                $ $ $ $ $ X ^ ~ ~ ~ ~ W I # O # $ $ $                                             ",
"                                            $ $ $ $ O ~ ~ ~ ~ ~ ~ ~ ~ ~ ~ T T W $ $ $ #                                           ",
"                                          @ $ $ $ T ~ ~ ~ ~ ~ ~ ~ ~ ~ ~ ~ T ~ ~ ~ ~ $ #                                           ",
"                                          $ O # ^ ^ U P = & o o o . % * P I U E W ^ # $                                           ",
"                                          $ $ O ~ ~ ~ ~ ~ ~ ~ ~ ~ ~ ~ ~ ~ ~ T ~ ~ ~ $ $                                           ",
"                                          + $ O ~ ~ ~ ~ ~ ~ ~ ~ ~ ~ ~ ~ ~ ~ ~ ~ ~ ~ O $                                           ",
"                                            $ $ T ~ ~ ~ ~ ~ ~ ~ ~ ~ ~ ~ ~ ~ ~ ~ ~ ~ $ $                                           ",
"                                            $ $ Q ~ ~ ~ ~ ~ ~ ~ ~ ~ ~ T ~ ~ ~ ~ ~ ~ $ $                                           ",
"                                            $ $ ! ~ T ~ ~ ~ ~ ~ ~ ~ ~ ~ ~ ~ ~ ~ ~ T O                                             ",
"                                      2 2   # O T ~ ~ ~ ~ ~ ~ ~ ~ ~ ~ ~ ~ ~ ~ ~ ~ T $   2                                         ",
"                                      2 2 2 2 2 2 , R ! ^ ~ ~ ~ ~ ~ ~ ~ W ! : , 2 2 2 2 2 2                                       ",
"                                    2 2 3 2 2 2 2 2 2 < 2 2 2 2 < 2 2 2 2 2 2 2 2 2 2 2 0 2 2                                     ",
"                                    2 2            .> 2 2 2 2 2 2 2 2 2 2 2 2 ..          2 2                                     ",
"                                    2 2                                                   2 2                                     ",
"                                    2 2                                                   2 2                                     ",
"                                    2 2                                   8.8.8.8.8.      2 2                                     ",
"                                    2 2                                 8.8.8.8.8.8.      2 2                                     ",
"                                  2 2 2                                 8.8.8.8.8.        2 2 2                                   ",
"                                  2 2 2                                     8.            2 2 2                                   ",
"                                    2 2 2                                               2 2 2                                     ",
"                                      2 2 2 2 2 2 3                           } 2 2 2 2 2 2 2                                     ",
"                                          2 2 2 2 2 2 2 2 2 2 2 2 2 2 2 2 2 2 2 2 2 2 2                                           ",
"                                              2 2 2 2 2 2 2 2 2 2 2 2 2 2 2 2 2 2 2                                               ",
"                                              2 2                               2 2                                               ",
"                                              2 2                               2 2                                               ",
"                                              2 ]                               0 2                                               ",
"                                            2 2 ..                              $.2 2                                             ",
"                                            2 2                                   2 2                                             ",
"                                            2 2           #.                      2 2                                             ",
"                                            2 2           ..                      2 2                                             ",
"                                            2 2           ..                      2 2                                             ",
"                                            2 2         ....                      2 2 2                                           ",
"                                            2 *.        ....                        2 2                                           ",
"                                          2 2           ....                        2 2                                           ",
"                                          2 2           ....                        2 2                                           ",
"                                      2 2 2 =.          ....                          2 2 2                                       ",
"                                  2 2 2 2 2           +.....                          2 2 2 2 2                                   ",
"                              2 2 2 2 2 2 {           ......                            2 2 2 2 2 2                               ",
"                          2 2 2 2 2 %.              ........                                  2 2 2 2 2                           ",
"                      2 2 2 2 2                   ..........                                      2 2 2 2 2                       ",
"                  2 2 2 2 ]                   ..............                                          0 2 2 2 2                   ",
"              2 2 2 2 9                   @.................      8.8.                      8.            8 2 2 2 2               ",
"            2 2 2 2                     ..................#.  8.8.8.8.8.                      8.8.8.          2 2 2 2 2           ",
"        2 2 2 2                     ....................    8.8.8.8.8.8.8.                      8.8.8.8.          2 2 2 2         ",
"      2 2 2 2                   ....................        8.8.8.8.8.8.8.                      8.8.8.8.8.          2 2 2 2 2     ",
"  2 2 2 2 2                 ......O.X.d w e e e j x x x x x ) ) ) ( ' o.&.                          8.8.8.8.8.        3 2 2 2 2   ",
"  2 2 2 3             A e e e e e e e e e e r x x x x x x x ) / / ) / / / x x x x x x x x x x x x x j 8.8.8.8.8.        [ 2 2 2   ",
"  2 < 8     S j x x r e e e e e e e e e e x x x x x x x x x x / / / / / x x x x x x x x x x x x x x x x ` 8.8.8.8.x x h S | 2 2   ",
"  2 2 x x x x x x e e e e e e e e e e j x x x x x x x x x x x x D / G x x x x x x x x x x x x x x x x x x g 8.8.8.8.x x x x 2 2   ",
"2 2 , x x x x x e e e e e e e e e e x x x x x x x x x x x x x x x x x x x x x x x x x x x x x x x x x x x x x 8.8.8.x x x x 7 2   ",
"2 2 7 x x x x r e e e e e e e e x x x x x x x x x x x x x x x x x x x x x x x x x x x x x x x x x x x x x x x j 8.8.;.x x x t 2   ",
"2 2 p M M M m f e e e e e e h x x x x x x x x x x x x x x x x x x x x x x x x x x x x x x x x x x x x x x x x x 8.8.8.x x x g 2   ",
"2 2 z M M M M h h h h h m c x x x x x x x x x x x x x x x x x x x x x x x x x x x x x x x x x x x x x x x x x x 8.8.8.x x M N 2 < ",
"2 2 b M M M M h h h h j M M M M M M M M M m x x x x x x x x x x x x x x x x x x x x x x x x x x x c m m m M M M ,.8.8.M M M M 2 2 ",
"2 2 n M M M m h h h h h M M M M M M M M M M M M M M M M M M M M M M M M M M M M M M M M M M M M M M M M M M M M ,.8.8.M M M M 2 2 ",
"2 1 v M M M x h h h h j M M M M M M M M M M M M M M M M M M M M M M M M M M M M M M M M M M M M M M M M M M M M ,.8.,.M M M M 2 2 ",
"2 2 v M M M j h h h h c M M M M M M M M M M M M M M M M M M M M M M M M M M M M M M M M M M M M M M M M M M M M ,.8.;.M M M M 2 2 ",
"2 2 n M M M j h h h j m M M M M M M M M M M M M M M M M M M M M M M M M M M M M M M M M M M M M M M M M M M M M <.8.-.M M M M 2 2 ",
"2 2 b M M M j h h h h m M M M M M M M M M M M M M M M M M M M M M M M M M M M M M M M M M M M M M M M M M M M M 8.8._ M M M m 2 2 ",
"2 2 l M M M h h h h h m M M M M M M M M M M M M M M M M M M M M M M M M M M M M M M M M M M M M M M M M M M M M 8.8.N M M M n 2 2 ",
"2 2 u m M M j h h h h x M M M M M M M M M M M M M H L L L M M M M M M M M M M M M M M M M M M M M M M M M M M M 8.8.m M M M z 2 2 ",
"2 1 7 M M M j h h h j j M M M M M M M M M M M M H L L L L L M M M M M M M M M M M M M M M M M M M M M M M M M M 8.8.M M M M y 2 2 ",
"  2 , M M M j h h h h h M M M M M M M M M M M M L L L L L L F M M M M M M M M M M M M M M M M M M M M M M M M M 8.8.M M M M , 1 2 ",
"  2 2 M M M x h h h h h M M M M M M M M M M M H L L L L L L L M M M M M M M M M M M M M M M M M M M M M M M M M 8.8.M M M M 2 2   ",
"  2 2 M M M M h h h h h M M M M M M M M M M M L L L L L L L L M M M M M M M M M M M M M M M M M M M M M M M M M 2.8.M M M M 2 2   ",
"  2 < M M M M h h h h j M M M M M M M M M M M M L L L L L L M M M M M M M M M M M M M M M M M M M M M M M M M M ,.8.M M M M 2 2   ",
"    1 M M M M h h h h h m M M M M M M M M M M M M L L L L M M M M M M M M M M M M M M M M M M M M M M M M M M M ,.>.M M M s 2 2   ",
"    2 v M M M h h h h h j M M M M M M M M M M M M M M M M M M M M M M M M M M M M M M M M M M M M M M M M M M M M M M M M 1 2     ",
"    2 5 M M M M h h h h h M M M M M M M M M M M M M M M M M M M M M M M M M M M M M M M M M M M M M M M M M M M M M M M M 2 2     ",
"    2 < M M M M h h h h h m M M M M M M M M M M M M M M M M M M M M M M M M M M M M M M M M M M M M M M M M M M M M M M k 2 2     ",
"      2 l M M M M j h h h h M M M M M M M M M M M M M M M M M M M M M M M M M M M M M M M M M M M M M M M M M M M M M M 2 2       ",
"      2 2 M M M M j h h h h M M M M M M M M M M M M M M M M M M M M M M M M M M M M M M M M M M M M M M M M M M M M M u 2 2       ",
"        2 7 M M M M j h h h h M M M M M M M M M M M M M M M M M M M M M M M M M M M M M M M M M M M M M M M M M M M m 2 2         ",
"        2 2 k M M M M h h h h h M M M M M M M M M M M M M M M M M M M M M M M M M M M M M M M M M M M M M M M M M M 2 2 2         ",
"          2 2 b M M M M j h h h h M M M M M M M M M M M M M M M M M M B H H H Z M M M M M M M M M M M M M M M M M 2 2 2           ",
"            2 2 N M M M M h h h h h M M M M M M M M M M M M M M M M m H H H H H C M M M M M M M M M M M M M M M , 2 2             ",
"            2 2 1 m m M M M x h h h h c M M M M M M M M M M M M M M H H H H H H H M M M M M M M M M M M M M M 6 2 2 2             ",
"              2 1 2 z M M M M M h h h j j M M M M M M M M M M M M M H H H H H H H M M M M M M M M M M M M M 4 2 2 1               ",
"                2 2 2 ; M M M M M m j j j h M M M M M M M M M M M M H H H H H H H M M M M M M M M M M M M 7 2 2 2                 ",
"                  2 2 2 2 M M M M M M M j h M M M M M M M M M M M M H H H H H H V M M M M M M M M M M M 2 2 2 2                   ",
"                    2 2 2 2 u M M M M M M M M M M M M M M M M M M M M B H H H C M M M M M M M M M M v 2 2 2 2                     ",
"                        2 2 2 2 l M M M M M M M M M M M M M M M M M M M M M M M M M M M M M M M M , 2 2 2                         ",
"                          2 2 2 1 2 i M M M M M M M M M M M M M M M M M M M M M M M M M M M M 7 2 2 2 2                           ",
"                              2 2 2 2 2 2 b M M M M M M M M M M M M M M M M M M M M M M a < 2 2 2 2                               ",
"                                  2 2 2 2 2 2 2 7 i n M M M M M M M M M M M M N u 1 2 2 2 2 2 2                                   ",
"                                        2 2 2 2 2 2 2 2 2 2 2 2 2 2 2 2 2 2 2 2 2 2 2 2 2                                         ",
"                                                2 2 2 2 2 2 2 2 2 2 2 2 2 2 2                                                     "
};
