/* XPM */
static char *result[] = {
/* columns rows colors chars-per-pixel */
"65 89 107 2 ",
"   c #592506",
".  c #56260C",
"X  c #5B2609",
"o  c #53280E",
"O  c #4C2B16",
"+  c #4C2A1A",
"@  c #552711",
"#  c #542810",
"$  c #632C0C",
"%  c #6A2E0D",
"&  c #703713",
"*  c #763B17",
"=  c #7F3E17",
"-  c #7E3D3D",
";  c #7B533A",
":  c gray31",
">  c #5B4E4C",
",  c #52524F",
"<  c #564F50",
"1  c #525152",
"2  c #5B5B5B",
"3  c #6E4644",
"4  c #674847",
"5  c #674748",
"6  c #634A4A",
"7  c gray40",
"8  c gray43",
"9  c #767676",
"0  c gray50",
"q  c #A90808",
"w  c #B50100",
"e  c #BA0101",
"r  c #952D2C",
"t  c #873838",
"y  c #943433",
"u  c #AE2526",
"i  c #A42C2C",
"p  c #B22324",
"a  c #BB2020",
"s  c #B62F2F",
"d  c #C60202",
"f  c #CF090B",
"g  c #D70101",
"h  c #DB0101",
"j  c #C21C1D",
"k  c #D51514",
"l  c #D91211",
"z  c #E30102",
"x  c #ED0303",
"c  c #EE0807",
"v  c #E50C0B",
"b  c #EC0909",
"n  c #F40303",
"m  c #FF0100",
"M  c #F4090A",
"N  c #FC0D0B",
"B  c #FD1010",
"V  c #FE1D1E",
"C  c #FE201E",
"Z  c #DC3336",
"A  c #DD3C3C",
"S  c #E92728",
"D  c #FF2320",
"F  c #EF3C3B",
"G  c #FF3233",
"H  c #FE3837",
"J  c #FE3738",
"K  c #FE3839",
"L  c #844019",
"P  c #8D451C",
"I  c #9F4E1F",
"U  c #A0501F",
"Y  c #B4571E",
"T  c #885337",
"R  c #AC5624",
"E  c #AF5825",
"W  c #A85628",
"Q  c #AC592A",
"!  c #B45720",
"~  c #B15923",
"^  c #EA3F40",
"/  c #DB4747",
"(  c #E44142",
")  c #DA6565",
"_  c #DA7676",
"`  c #E66967",
"'  c #838383",
"]  c #979797",
"[  c #9A9A9A",
"{  c gray63",
"}  c #B8ACAC",
"|  c #B4B4B4",
" . c #BBBBBB",
".. c #C69D9F",
"X. c #E18B8B",
"o. c #C6B7B4",
"O. c #C4C4C4",
"+. c #CDCDCD",
"@. c #D2D2D2",
"#. c gray87",
"$. c #F9CCCD",
"%. c gray93",
"&. c #F3F3F3",
"*. c #FFF4F5",
"=. c #FFF7FA",
"-. c #FFFFFF",
";. c None",
/* pixels */
";.;.;.;.;.;.;.;.;.;.;.;.;.;.;.;.;.;.;.;.;.;.;.;.;.;.;.;.;.;.# # # # # o @ @ ;.;.;.;.;.;.;.;.;.;.;.;.;.;.;.;.;.;.;.;.;.;.;.;.;.;.;.",
";.;.;.;.;.;.;.;.;.;.;.;.;.;.;.;.;.;.;.;.;.;.;.;.;.;.;.@ @ @ # # # # # # # # # @ # ;.;.;.;.;.;.;.;.;.;.;.;.;.;.;.;.;.;.;.;.;.;.;.;.",
";.;.;.;.;.;.;.;.;.;.;.;.;.;.;.;.;.;.;.;.;.;.;.;.# # # # # . ~ ! ! ! ! E P @ o @ # # # ;.;.;.;.;.;.;.;.;.;.;.;.;.;.;.;.;.;.;.;.;.;.",
";.;.;.;.;.;.;.;.;.;.;.;.;.;.;.;.;.;.;.;.;.;.# # # # o ! ! ! ! ! ! ! ! ! ! Y Y E # # # @ ;.;.;.;.;.;.;.;.;.;.;.;.;.;.;.;.;.;.;.;.;.",
";.;.;.;.;.;.;.;.;.;.;.;.;.;.;.;.;.;.;.;.;.+ # # # Y ! ! ! ! ! ! ! ! ! ! ! Y ! Y ! ! # @ ;.;.;.;.;.;.;.;.;.;.;.;.;.;.;.;.;.;.;.;.;.",
";.;.;.;.;.;.;.;.;.;.;.;.;.;.;.;.;.;.;.;.;.# o @ ~ ~ I L * % X X X   $ & L P I R E ~ @ # ;.;.;.;.;.;.;.;.;.;.;.;.;.;.;.;.;.;.;.;.;.",
";.;.;.;.;.;.;.;.;.;.;.;.;.;.;.;.;.;.;.;.;.# # o ! ! ! ! ! ! ! ! ! ! ! ! ! ! ! ! ! ! # # ;.;.;.;.;.;.;.;.;.;.;.;.;.;.;.;.;.;.;.;.;.",
";.;.;.;.;.;.;.;.;.;.;.;.;.;.;.;.;.;.;.;.;.O # o ! ! ! ! ! ! ! ! ! ! ! ! ! ! ! ! ! ! o # ;.;.;.;.;.;.;.;.;.;.;.;.;.;.;.;.;.;.;.;.;.",
";.;.;.;.;.;.;.;.;.;.;.;.;.;.;.;.;.;.;.;.;.;.# # Y ! ! ! ! ! ! ! ! ! Y ! ! ! ! ! ! ! # # ;.;.;.;.;.;.;.;.;.;.;.;.;.;.;.;.;.;.;.;.;.",
";.;.;.;.;.;.;.;.;.;.;.;.;.;.;.;.;.;.;.;.;.;.# # W ! ! ! ! ! ! ! ! ! ! ! ! ! ! ! ! ! # # ;.;.;.;.;.;.;.;.;.;.;.;.;.;.;.;.;.;.;.;.;.",
";.;.;.;.;.;.;.;.;.;.;.;.;.;.;.;.;.;.;.;.;.;.# # Q ! Y ! ! ! ! ! ! ! ! ! ! ! ! ! ! Y o ;.;.;.;.;.;.;.;.;.;.;.;.;.;.;.;.;.;.;.;.;.;.",
";.;.;.;.;.;.;.;.;.;.;.;.;.;.;.;.;.;.;.1 1 ;.@ o Y ! ! ! ! ! ! ! ! ! ! ! ! ! ! ! ! Y # ;.1 ;.;.;.;.;.;.;.;.;.;.;.;.;.;.;.;.;.;.;.;.",
";.;.;.;.;.;.;.;.;.;.;.;.;.;.;.;.;.;.;.1 1 1 1 1 1 > T Q ~ ! ! ! ! ! ! ! E Q ; > 1 1 1 1 1 1 ;.;.;.;.;.;.;.;.;.;.;.;.;.;.;.;.;.;.;.",
";.;.;.;.;.;.;.;.;.;.;.;.;.;.;.;.;.;.1 1 2 1 1 1 1 1 1 , 1 1 1 1 , 1 1 1 1 1 1 1 1 1 1 1 9 1 1 ;.;.;.;.;.;.;.;.;.;.;.;.;.;.;.;.;.;.",
";.;.;.;.;.;.;.;.;.;.;.;.;.;.;.;.;.;.1 1 ;.;.;.;.;.| : 1 1 1 1 1 1 1 1 1 1 1 1  .;.;.;.;.;.1 1 ;.;.;.;.;.;.;.;.;.;.;.;.;.;.;.;.;.;.",
";.;.;.;.;.;.;.;.;.;.;.;.;.;.;.;.;.;.1 1 ;.;.;.;.;.;.;.;.;.;.;.;.;.;.;.;.;.;.;.;.;.;.;.;.;.1 1 ;.;.;.;.;.;.;.;.;.;.;.;.;.;.;.;.;.;.",
";.;.;.;.;.;.;.;.;.;.;.;.;.;.;.;.;.;.1 1 ;.;.;.;.;.;.;.;.;.;.;.;.;.;.;.;.;.;.;.;.;.;.;.;.;.1 1 ;.;.;.;.;.;.;.;.;.;.;.;.;.;.;.;.;.;.",
";.;.;.;.;.;.;.;.;.;.;.;.;.;.;.;.;.;.1 1 ;.;.;.;.;.;.;.;.;.;.;.;.;.;.;.;.;.-.-.-.-.-.;.;.;.1 1 ;.;.;.;.;.;.;.;.;.;.;.;.;.;.;.;.;.;.",
";.;.;.;.;.;.;.;.;.;.;.;.;.;.;.;.;.;.1 1 ;.;.;.;.;.;.;.;.;.;.;.;.;.;.;.;.-.-.-.-.-.-.;.;.;.1 1 ;.;.;.;.;.;.;.;.;.;.;.;.;.;.;.;.;.;.",
";.;.;.;.;.;.;.;.;.;.;.;.;.;.;.;.;.1 1 1 ;.;.;.;.;.;.;.;.;.;.;.;.;.;.;.;.-.-.-.-.-.;.;.;.;.1 1 1 ;.;.;.;.;.;.;.;.;.;.;.;.;.;.;.;.;.",
";.;.;.;.;.;.;.;.;.;.;.;.;.;.;.;.;.1 1 1 ;.;.;.;.;.;.;.;.;.;.;.;.;.;.;.;.;.;.-.;.;.;.;.;.;.1 1 : ;.;.;.;.;.;.;.;.;.;.;.;.;.;.;.;.;.",
";.;.;.;.;.;.;.;.;.;.;.;.;.;.;.;.;.;.1 1 1 ;.;.;.;.;.;.;.;.;.;.;.;.;.;.;.;.;.;.;.;.;.;.;.1 1 1 ;.;.;.;.;.;.;.;.;.;.;.;.;.;.;.;.;.;.",
";.;.;.;.;.;.;.;.;.;.;.;.;.;.;.;.;.;.;.1 1 1 1 1 1 2 ;.;.;.;.;.;.;.;.;.;.;.;.;.{ 1 1 1 1 1 1 1 ;.;.;.;.;.;.;.;.;.;.;.;.;.;.;.;.;.;.",
";.;.;.;.;.;.;.;.;.;.;.;.;.;.;.;.;.;.;.;.;.1 1 1 1 1 1 1 1 1 1 1 1 1 1 1 1 1 1 1 1 1 1 1 ;.;.;.;.;.;.;.;.;.;.;.;.;.;.;.;.;.;.;.;.;.",
";.;.;.;.;.;.;.;.;.;.;.;.;.;.;.;.;.;.;.;.;.;.;.1 1 1 1 1 1 1 1 1 1 1 1 1 1 1 1 1 1 1 ;.;.;.;.;.;.;.;.;.;.;.;.;.;.;.;.;.;.;.;.;.;.;.",
";.;.;.;.;.;.;.;.;.;.;.;.;.;.;.;.;.;.;.;.;.;.;.1 1 ;.;.;.;.;.;.;.;.;.;.;.;.;.;.;.1 1 ;.;.;.;.;.;.;.;.;.;.;.;.;.;.;.;.;.;.;.;.;.;.;.",
";.;.;.;.;.;.;.;.;.;.;.;.;.;.;.;.;.;.;.;.;.;.;.1 1 ;.;.;.;.;.;.;.;.;.;.;.;.;.;.;.1 1 ;.;.;.;.;.;.;.;.;.;.;.;.;.;.;.;.;.;.;.;.;.;.;.",
";.;.;.;.;.;.;.;.;.;.;.;.;.;.;.;.;.;.;.;.;.;.;.1 ' ;.;.;.;.;.;.;.;.;.;.;.;.;.;.;.9 1 ;.;.;.;.;.;.;.;.;.;.;.;.;.;.;.;.;.;.;.;.;.;.;.",
";.;.;.;.;.;.;.;.;.;.;.;.;.;.;.;.;.;.;.;.;.;.1 1  .;.;.;.;.;.;.;.;.;.;.;.;.;.;.;.@.1 1 ;.;.;.;.;.;.;.;.;.;.;.;.;.;.;.;.;.;.;.;.;.;.",
";.;.;.;.;.;.;.;.;.;.;.;.;.;.;.;.;.;.;.;.;.;.1 1 ;.;.;.;.;.;.;.;.;.;.;.;.;.;.;.;.;.1 1 ;.;.;.;.;.;.;.;.;.;.;.;.;.;.;.;.;.;.;.;.;.;.",
";.;.;.;.;.;.;.;.;.;.;.;.;.;.;.;.;.;.;.;.;.;.1 1 ;.;.;.;.;.+.;.;.;.;.;.;.;.;.;.;.;.1 1 ;.;.;.;.;.;.;.;.;.;.;.;.;.;.;.;.;.;.;.;.;.;.",
";.;.;.;.;.;.;.;.;.;.;.;.;.;.;.;.;.;.;.;.;.;.1 1 ;.;.;.;.;. .;.;.;.;.;.;.;.;.;.;.;.1 1 ;.;.;.;.;.;.;.;.;.;.;.;.;.;.;.;.;.;.;.;.;.;.",
";.;.;.;.;.;.;.;.;.;.;.;.;.;.;.;.;.;.;.;.;.;.1 1 ;.;.;.;.;. .;.;.;.;.;.;.;.;.;.;.;.1 1 ;.;.;.;.;.;.;.;.;.;.;.;.;.;.;.;.;.;.;.;.;.;.",
";.;.;.;.;.;.;.;.;.;.;.;.;.;.;.;.;.;.;.;.;.;.1 1 ;.;.;.;. . .;.;.;.;.;.;.;.;.;.;.;.1 1 1 ;.;.;.;.;.;.;.;.;.;.;.;.;.;.;.;.;.;.;.;.;.",
";.;.;.;.;.;.;.;.;.;.;.;.;.;.;.;.;.;.;.;.;.;.1 %.;.;.;.;. . .;.;.;.;.;.;.;.;.;.;.;.;.1 1 ;.;.;.;.;.;.;.;.;.;.;.;.;.;.;.;.;.;.;.;.;.",
";.;.;.;.;.;.;.;.;.;.;.;.;.;.;.;.;.;.;.;.;.1 1 ;.;.;.;.;. . .;.;.;.;.;.;.;.;.;.;.;.;.1 1 ;.;.;.;.;.;.;.;.;.;.;.;.;.;.;.;.;.;.;.;.;.",
";.;.;.;.;.;.;.;.;.;.;.;.;.;.;.;.;.;.;.;.;.1 1 ;.;.;.;.;. . .;.;.;.;.;.;.;.;.;.;.;.;.1 1 ;.;.;.;.;.;.;.;.;.;.;.;.;.;.;.;.;.;.;.;.;.",
";.;.;.;.;.;.;.;.;.;.;.;.;.;.;.;.;.;.;.1 1 1 &.;.;.;.;.;. . .;.;.;.;.;.;.;.;.;.;.;.;.;.1 1 1 ;.;.;.;.;.;.;.;.;.;.;.;.;.;.;.;.;.;.;.",
";.;.;.;.;.;.;.;.;.;.;.;.;.;.;.;.;.1 1 1 1 1 ;.;.;.;.;.O. . .;.;.;.;.;.;.;.;.;.;.;.;.;.1 1 1 1 1 ;.;.;.;.;.;.;.;.;.;.;.;.;.;.;.;.;.",
";.;.;.;.;.;.;.;.;.;.;.;.;.;.;.1 1 1 1 1 1 [ ;.;.;.;.;. . . .;.;.;.;.;.;.;.;.;.;.;.;.;.;.1 1 1 1 1 1 ;.;.;.;.;.;.;.;.;.;.;.;.;.;.;.",
";.;.;.;.;.;.;.;.;.;.;.;.;.1 1 1 1 1 #.;.;.;.;.;.;.;. . . . .;.;.;.;.;.;.;.;.;.;.;.;.;.;.;.;.;.1 1 1 1 1 ;.;.;.;.;.;.;.;.;.;.;.;.;.",
";.;.;.;.;.;.;.;.;.;.;.1 1 1 1 1 ;.;.;.;.;.;.;.;.;. . . . . .;.;.;.;.;.;.;.;.;.;.;.;.;.;.;.;.;.;.;.1 1 1 1 1 ;.;.;.;.;.;.;.;.;.;.;.",
";.;.;.;.;.;.;.;.;.1 1 1 1 ' ;.;.;.;.;.;.;.;.;. . . . . . . .;.;.;.;.;.;.;.;.;.;.;.;.;.;.;.;.;.;.;.;.;.9 1 1 1 1 ;.;.;.;.;.;.;.;.;.",
";.;.;.;.;.;.;.1 1 1 1 8 ;.;.;.;.;.;.;.;.;.O. . . . . . . . .;.;.;.-.-.;.;.;.;.;.;.;.;.;.;.;.-.;.;.;.;.;.;.7 1 1 1 1 ;.;.;.;.;.;.;.",
";.;.;.;.;.;.1 1 1 1 ;.;.;.;.;.;.;.;.;.;. . . . . . . . . .+.;.-.-.-.-.-.;.;.;.;.;.;.;.;.;.;.;.-.-.-.;.;.;.;.;.1 1 1 1 1 ;.;.;.;.;.",
";.;.;.;.1 1 1 1 ;.;.;.;.;.;.;.;.;.;. . . . . . . . . . .;.;.-.-.-.-.-.-.-.;.;.;.;.;.;.;.;.;.;.;.-.-.-.-.;.;.;.;.;.1 1 1 1 ;.;.;.;.",
";.;.;.1 1 1 1 ;.;.;.;.;.;.;.;.;. . . . . . . . . . .;.;.;.;.-.-.-.-.-.-.-.;.;.;.;.;.;.;.;.;.;.;.-.-.-.-.-.;.;.;.;.;.1 1 1 1 1 ;.;.",
";.1 1 1 1 1 ;.;.;.;.;.;.;.;. . . .o...s q w w w h z z z z z ( ( ( / ` X.$.;.;.;.;.;.;.;.;.;.;.;.;.;.-.-.-.-.-.;.;.;.;.2 1 1 1 1 ;.",
";.1 1 1 2 ;.;.;.;.;.;.Z w w w w w w w w w w e z z z z z z z ( ^ ^ ( ^ ^ ^ z z z z z z z z z z z z z h -.-.-.-.-.;.;.;.;.[ 1 1 1 ;.",
";.1 , 7 ;.;.A h z z e w w w w w w w w w w z z z z z z z z z z ^ ^ ^ ^ ^ z z z z z z z z z z z z z z z z _ -.-.-.-.z z g A } : 1 ;.",
";.1 1 z z z z z z w w w w w w w w w w h z z z z z z z z z z z z S ^ F z z z z z z z z z z z z z z z z z z f -.-.-.-.z z z z 1 1 ;.",
"1 1 > z z z z z w w w w w w w w w w z z z z z z z z z z z z z z z z z z z z z z z z z z z z z z z z z z z z z -.-.-.z z z z 6 1 ;.",
"1 1 6 z z z z e w w w w w w w w z z z z z z z z z z z z z z z z z z z z z z z z z z z z z z z z z z z z z z z h -.-.*.z z z r 1 ;.",
"1 1 i m m m n d w w w w w w g z z z z z z z z z z z z z z z z z z z z z z z z z z z z z z z z z z z z z z z z z -.-.-.z z z f 1 ;.",
"1 1 l m m m m g g g g g n x z z z z z z z z z z z z z z z z z z z z z z z z z z z z z z z z z z z z z z z z z z -.-.-.z z m M 1 , ",
"1 1 v m m m m g g g g h m m m m m m m m m n z z z z z z z z z z z z z z z z z z z z z z z z z z z x n n n m m m -.-.-.m m m m 1 1 ",
"1 1 b m m m n g g g g g m m m m m m m m m m m m m m m m m m m m m m m m m m m m m m m m m m m m m m m m m m m m =.-.-.m m m m 1 1 ",
"1 < c m m m z g g g g h m m m m m m m m m m m m m m m m m m m m m m m m m m m m m m m m m m m m m m m m m m m m -.-.=.m m m m 1 1 ",
"1 1 c m m m h g g g g x m m m m m m m m m m m m m m m m m m m m m m m m m m m m m m m m m m m m m m m m m m m m =.-.*.m m m m 1 1 ",
"1 1 b m m m h g g g h n m m m m m m m m m m m m m m m m m m m m m m m m m m m m m m m m m m m m m m m m m m m m -.-.*.m m m n 1 1 ",
"1 1 v m m m h g g g g n m m m m m m m m m m m m m m m m m m m m m m m m m m m m m m m m m m m m m m m m m m m m -.-.) m m m n 1 1 ",
"1 1 k m m m g g g g g n m m m m m m m m m m m m m m m m m m m m m m m m m m m m m m m m m m m m m m m m m m m m -.-.M m m m b 1 1 ",
"1 1 y n m m h g g g g z m m m m m m m m m m m m m G K K K m m m m m m m m m m m m m m m m m m m m m m m m m m m -.-.n m m m l 1 1 ",
"1 < 6 m m m h g g g h h m m m m m m m m m m m m G K K K K K m m m m m m m m m m m m m m m m m m m m m m m m m m -.-.m m m m t 1 1 ",
";.1 > m m m h g g g g g m m m m m m m m m m m m K K K K K K D m m m m m m m m m m m m m m m m m m m m m m m m m -.-.m m m m 6 1 1 ",
";.1 1 m m m z g g g g g m m m m m m m m m m m G K K K K K K K m m m m m m m m m m m m m m m m m m m m m m m m m -.-.m m m m 1 1 ;.",
";.1 1 m m m m g g g g g m m m m m m m m m m m K K K K K K K K m m m m m m m m m m m m m m m m m m m m m m m m m -.-.m m m m 1 1 ;.",
";.1 , m m m m g g g g g m m m m m m m m m m m m K K K K K K m m m m m m m m m m m m m m m m m m m m m m m m m m =.-.m m m n 1 1 ;.",
";.;.< m m m m g g g g g n m m m m m m m m m m m m K K K K m m m m m m m m m m m m m m m m m m m m m m m m m m m =.=.m m m a 1 1 ;.",
";.;.1 c m m m g g g g g g m m m m m m m m m m m m m m m m m m m m m m m m m m m m m m m m m m m m m m m m m m m m m m m m < 1 ;.;.",
";.;.1 4 m m m m g g g g g m m m m m m m m m m m m m m m m m m m m m m m m m m m m m m m m m m m m m m m m m m m m m m m m 1 1 ;.;.",
";.;.1 , m m m m g g g g h n m m m m m m m m m m m m m m m m m m m m m m m m m m m m m m m m m m m m m m m m m m m m m m j 1 1 ;.;.",
";.;.;.1 k m m m m h g g g g m m m m m m m m m m m m m m m m m m m m m m m m m m m m m m m m m m m m m m m m m m m m m m 1 1 ;.;.;.",
";.;.;.1 1 m m m m h g g g g m m m m m m m m m m m m m m m m m m m m m m m m m m m m m m m m m m m m m m m m m m m m m y 1 1 ;.;.;.",
";.;.;.;.1 6 m m m m h g g g g m m m m m m m m m m m m m m m m m m m m m m m m m m m m m m m m m m m m m m m m m m m n 1 1 ;.;.;.;.",
";.;.;.;.1 1 j m m m m g g g g h m m m m m m m m m m m m m m m m m m m m m m m m m m m m m m m m m m m m m m m m m m 1 1 1 ;.;.;.;.",
";.;.;.;.;.1 1 v m m m m g g g g g m m m m m m m m m m m m m m m m m m N G G G C m m m m m m m m m m m m m m m m m 1 1 1 ;.;.;.;.;.",
";.;.;.;.;.;.1 1 M m m m m g g g g g m m m m m m m m m m m m m m m m n G G G G G V m m m m m m m m m m m m m m m > 1 1 ;.;.;.;.;.;.",
";.;.;.;.;.;.1 1 < c m m m m z g g g g x m m m m m m m m m m m m m m G G G G G G G m m m m m m m m m m m m m m 5 1 1 1 ;.;.;.;.;.;.",
";.;.;.;.;.;.;.1 < 1 l m m m m m g g g h h m m m m m m m m m m m m m G G G G G G G m m m m m m m m m m m m m 3 1 1 < ;.;.;.;.;.;.;.",
";.;.;.;.;.;.;.;.1 1 1 - m m m m m n h h h g m m m m m m m m m m m m G G G G G G G m m m m m m m m m m m m 6 1 1 1 ;.;.;.;.;.;.;.;.",
";.;.;.;.;.;.;.;.;.1 1 1 1 m m m m m m m h g m m m m m m m m m m m m G G G G G G B m m m m m m m m m m m 1 1 1 1 ;.;.;.;.;.;.;.;.;.",
";.;.;.;.;.;.;.;.;.;.1 1 1 1 y m m m m m m m m m m m m m m m m m m m m N G G G V m m m m m m m m m m c 1 1 1 1 ;.;.;.;.;.;.;.;.;.;.",
";.;.;.;.;.;.;.;.;.;.;.;.1 1 1 1 l m m m m m m m m m m m m m m m m m m m m m m m m m m m m m m m m > 1 1 1 ;.;.;.;.;.;.;.;.;.;.;.;.",
";.;.;.;.;.;.;.;.;.;.;.;.;.1 1 1 1 1 u m m m m m m m m m m m m m m m m m m m m m m m m m m m m 6 1 1 1 1 ;.;.;.;.;.;.;.;.;.;.;.;.;.",
";.;.;.;.;.;.;.;.;.;.;.;.;.;.;.1 1 1 1 1 1 v m m m m m m m m m m m m m m m m m m m m m m p , 1 1 1 1 ;.;.;.;.;.;.;.;.;.;.;.;.;.;.;.",
";.;.;.;.;.;.;.;.;.;.;.;.;.;.;.;.;.1 1 1 1 1 1 1 6 u b m m m m m m m m m m m m n y < 1 1 1 1 1 1 ;.;.;.;.;.;.;.;.;.;.;.;.;.;.;.;.;.",
";.;.;.;.;.;.;.;.;.;.;.;.;.;.;.;.;.;.;.;.1 1 1 1 1 1 1 1 1 1 1 1 1 1 1 1 1 1 1 1 1 1 1 1 1 ;.;.;.;.;.;.;.;.;.;.;.;.;.;.;.;.;.;.;.;.",
";.;.;.;.;.;.;.;.;.;.;.;.;.;.;.;.;.;.;.;.;.;.;.;.1 1 1 1 1 1 1 1 1 1 1 1 1 1 1 ;.;.;.;.;.;.;.;.;.;.;.;.;.;.;.;.;.;.;.;.;.;.;.;.;.;."
};
