/* XPM */
static char *result[] = {
/* columns rows colors chars-per-pixel */
"100 131 8 1 ",
"  c #31353F",
". c #393D48",
"X c #6E7480",
"o c #949DAA",
"O c #CED0DC",
"+ c #E7E8F0",
"@ c white",
"# c None",
/* pixels */
"####################################################################################################",
"####################################################################################################",
"####################################################################################################",
"####################################################################################################",
"####################################################################################################",
"####################################################################################################",
"####################################################################################################",
"####################################################oooooooooooo####################################",
"##################################################oooooooooooooooo##################################",
"#################################################oooOOOOOOOOOoooooo#################################",
"################################################ooOOOO++++OOOOOooooo################################",
"###############################################ooOOO+++++++OOOOOoooo################################",
"###############################################oOO+++++++++++OOOOoooX###############################",
"##############################################oOO+++++@@@+++++OOOoooXX##############################",
"#############################################oOO++++@@@@@@@++++OOOooXX##############################",
"#############################################oO++++@@@@@@@@++++OOOoooXX#############################",
"#############################################o++++@@@@@@@@@@++++OOOooXX#############################",
"#############################################o++@@@@@@@@@@@@++++OOOooXX#############################",
"############################################oo+@@@@@@@@@@@@@@++XOOOoooX#############################",
"############################################oO+@@@@@@@@@@@@@@++XXOOOooX#############################",
"############################################oO+@@@@@@@@@@@@@@@+XXOOOooX#############################",
"############################################oOOOO@@@@@@@@OOO@@@oXXOOoo.#############################",
"############################################oOOOOO@@@@@@OOOOO@@oXXOOoo.#############################",
"############################################oOO     @@OX    OO@ooXOOoo.#############################",
"############################################oO      O@OX     O@@oXOOo..#############################",
"############################################oO      OOOo     OO@@XOOo..#############################",
"############################################oO      @O@o     OO@@OOOo..#############################",
"############################################o@    @@..@@o    OO@@OOO...#############################",
"############################################o@@  @@....@o   OO@@OOXO..##############################",
"############################################o@@@OO......@OOOO@@OOOXo..##############################",
"#############################################o@@@@@O..@OOOOO@@oOOXX..###############################",
"#############################################oo@@@OO++@@OO@@@ooXXX...###############################",
"##############################################ooXoooo@@@+Ooo XXX@...################################",
"###############################################oXXoo@@+++oo  XOO@..#################################",
"###############################################+XXO+XO+XO+X   @...##################################",
"###############################################+oXO+XO+XO+XX  @.####################################",
"###############################################+OOXo+XoOXo+XXX@.####################################",
"###############################################++OOo+Xo+Xo+XX+@..###################################",
"################################################++ooo++++ooo+++..XX.##oooooo########################",
"#######################################XXXXooXXX+++++++++++++X...OOXXXOOoo@@++######################",
"#####################################oo++++XX++XXXXXXXXXXXXXXX XXXXOXX..XX..ooO#####################",
"####################################o+++o++OOO++  ++ooooooooooooo@@ooXX....o@@@o####################",
"####################################o++o+OOOO.+++ +++++++++++@@@@@@@ooXX..oo@@@o####################",
"###################################oo+oo+OOo.o+++++.....@@+.......+@OoXXX.oO@@Oo####################",
"###################################oooooOOo.o+++  ......@@+........ OOOXXXoOO@Oo####################",
"###################################oo++oXo.o++  ..  @@++++++++@..    oO  XoOOOoX####################",
"###################################oO++oXo+++   ..@@@@@@@++@@@@++XX   O+ +oOOOoX####################",
"###################################oO++o OO+    +++     @@+     ++++   ++OoOO@OX####################",
"###################################oO++o OO   ++++      @@+       ++XX OOOoo@@OX####################",
"###################################oO++oX+O  ++  .  ++++@@+++++     @@OO. oo@@@X####################",
"###################################oOO+oX+O ++    +O++..@@+..+++X   ..OOO  o@@@X####################",
"###################################oOOOOX++++   +++     @@+X...@@@@o    OO oO@@o####################",
"###################################oO@OOXO+  ..++     ++@++OO  .. @@o  OOX oOO@o####################",
"###################################oO@@OXO+  +++    ++++@++OOOO.. ..oooOOX oOO@o####################",
"###################################oO@@OXOO +++    +++  @++  OOOO    ++OOX oO+@o####################",
"###################################oO@@OXXOO++   ++++   @++    OOO    +OXX  O+@o####################",
"###################################oO@@O XOO+   ++.... O@++@   .O@oo  ++O   ++@o####################",
"###################################oO@OO XXOO +++ ...+OOOOO@@+ .. @oo++OO   +@@o####################",
"###################################oO@OO XXOO++X   X@@+      @@o    o+OO   o+@+o####################",
"###################################o@@OO #XXO+X   X+@         ++o    +OO # o@@+o####################",
"###################################o@OO X##XX++ ++++           +@++  OO  # o@@oo####################",
"###################################o@OO X###X+++++               ++++O  ## o@@o#####################",
"###################################oO@@O X###X++       XoXX        ++  ### o@@o#####################",
"###################################o@@@@  ####XO+     ooooOOoo    o+OX#### o@+o#####################",
"###################################o@OO@@ #####X++oooooo..OO oooooo+X##### o@+o#####################",
"###################################oooooX ######  XXXX   XOOo..XXXXX###### +@+o#####################",
"####################################oXXXXO ############# XOOo.############ +@+o#####################",
"####################################     OO ############.XOOoX############X+@Oo#####################",
"####################################  OOOOO ############.XOOoX############X+@Oo#####################",
"####################################o@@@OOOo############.XOOoX############o+OO.#####################",
"####################################oO@@@OOo############.XOOoX############o+O..#####################",
"####################################oOO@@OO ############.XOOo.#####.......oXO.OX####################",
"#####################################oO@@OO  ###########.Xooo....XXoOOOOOooX..OX####################",
"#####################################oXO@@O  #####......XXooXXXXooo++++oooXX@@OX####################",
"#####################################oXO@@Oo X##XX.XXXXXXooXXXXooo++++++ooX@@@OX####################",
"######################################oX@@Ooo #Xoo+OOoooX....Xooo+++OOooXX@@oo@.####################",
"#######################################XO@@oo XXooOOO+oXXX..XXoo+++OOOoX@@@o.@..####################",
"#######################################oX@@Oo XooooO++XXXXXXXoooXXooOoX@@@o.@@.#####################",
"#######################################oX@@@oXXXX.XooOOO..ooo  XXXXOOoX@@o.o@o.#####################",
"########################################oX@@oXX ..XXooO##########XooOX@@ooo@o..#####################",
"########################################oX@@oo    XXooX##########XoooX@@o.@@...#####################",
"#########################################oX@@o #  XXXoXX########XoooX@@o.o@@...#####################",
"#########################################oX@@o ## .XXooXX######XoooX@@@.o@@o...#####################",
"#########################################oX@@o ## ..XXooXX####XXoXX @@oo@@o...o.####################",
"######################################## ooX@@XX##   XooooooooXXX   OO@@@X...oo.####################",
"########################################XXoX@@OX##     ooooXXXX    OOOO@XX...Xo.####################",
"#######################################X@ oo@@O X##     .XXXX.@@@@@.OoXX....XXo.####################",
"######################################X@@  o@@@OX## ....XXXXX@@...X@oo....oooXo.####################",
"#####################################X@@@  oo@@OXX##...XXX##@@.#.XXooo..#.ooooo.####################",
"####################################X@@@OOO  X@@XX    oo###@@ #.XXoo@o..#.OO@oo.####################",
"###################################X@@@OOOO  X@@X##############XX@@o@o.##.O@@Oo.####################",
"##################################X@@@OOXX.  o@@X#############XX@@o@@..##.O@@OO.####################",
"##################################X@+OOXX..  o@@@X############X@@ooo@.###.O@@@O.####################",
"#################################X++++XX...ooOX@@@XX#########X@@X@oo@.###.O@@@O.####################",
"#############################XooXX+++XX...##oOXX@@@XX########@@XX@@o@.###.OO@@O.####################",
"############################oo@@OO.o+X...####o@XX@@@XX######X@@X@@X@X.###.oO@@o.####################",
"############################o@@@@O.oo...#####o@@XX@@@XO#####X@XX@XX@X####.oo@oo.####################",
"###########################X@@@@@@..o..######oo@@XX@@@X######XX@@X@@X####.ooooX.####################",
"###########################o.@@@@.....########o@@@XXX@X########XXX@XX####.oo+oo.####################",
"###########################o..@@.XX..#########oo@@XXOOX#########X@XX#####.o+@+o.####################",
"###########################Xo...XX..###########oX@XOOX###########XX######o+@@@+.####################",
"##########################.Xoo.XX..############ooXOOX####################o+@@@+..###################",
"#########################X@@OO X..##############..XX#####################.o+@+.o..##################",
"########################X@@@OXX .########################################.oo+o.ooX##################",
"#######################o@@@OXX..##########################################X....OOX##################",
"######################oo@@OXX..###########################################XX..@@OX##################",
"#####################oo@@OXX..#############################################XX.@@@X##################",
"####################oo@@OXX..###############################################XXO@@X##################",
"###################oo@@OX...#################################################Xo@@o##################",
"##################X@@@OX...###################################################oO@o##################",
"#################XX@@OO...####################################################oO@o##################",
"#################XXXo....####################################################XoOOoo#################",
"################XXXoo...###############################################XXXOOXXoOooo#################",
"###############ooooooX.################################################......XXXXOoX################",
"##############XXXXoooX#################################################   .....XXOOX################",
"#########XOOoooXXOOXX##################################################.   ........#################",
"#######.XXXXOOOXXOOX####################################################    ...  ..#################",
"########.........  .####################################################     .    .#################",
"#########........  .####################################################      .  ..#################",
"##########XX....o...#####################################################      ....#################",
"###########XXoooo...#####################################################.     ...##################",
"###########XXooOO...#####################################################..    ...##################",
"############XOOOO...######################################################..  o...##################",
"#############XOOO..#######################################################... oo.###################",
"#############XXOO..########################################################...oo.###################",
"##############XOO..########################################################..ooo.###################",
"############### O #########################################################.ooOo.###################",
"################  #########################################################.ooO.####################",
"###########################################################################XoOO ####################",
"###########################################################################XOOO ####################",
"############################################################################   #####################"
};
